<svg width="50" height="50" viewBox="0 0 50 50" fill="none" xmlns="http://www.w3.org/2000/svg">
<path d="M43.7493 8.33351H4.16602V12.5002H8.95768L16.2931 32.6731C16.5862 33.4762 17.1187 34.17 17.8188 34.6607C18.5189 35.1514 19.3528 35.4153 20.2077 35.4168H37.4993V31.2502H20.2077L18.691 27.0835H37.4993C38.3327 27.0835 39.0868 26.5877 39.4139 25.821L45.6639 11.2377C45.8009 10.9209 45.8568 10.575 45.8267 10.2311C45.7965 9.88733 45.6813 9.55642 45.4913 9.26827C45.3014 8.98012 45.0427 8.74379 44.7386 8.5806C44.4344 8.41741 44.0945 8.33249 43.7493 8.33351Z" fill="#FAFAFA"/>
<path d="M21.875 43.75C23.6009 43.75 25 42.3509 25 40.625C25 38.8991 23.6009 37.5 21.875 37.5C20.1491 37.5 18.75 38.8991 18.75 40.625C18.75 42.3509 20.1491 43.75 21.875 43.75Z" fill="#FAFAFA"/>
<path d="M34.375 43.75C36.1009 43.75 37.5 42.3509 37.5 40.625C37.5 38.8991 36.1009 37.5 34.375 37.5C32.6491 37.5 31.25 38.8991 31.25 40.625C31.25 42.3509 32.6491 43.75 34.375 43.75Z" fill="#FAFAFA"/>
</svg>
